inDegrees=yes
name=ik_lifting_orientations
DataType=double
version=3
OpenSimVersion=4.5-2024-01-10-34fd6af
endheader
time	pelvis_tilt	pelvis_list	pelvis_rotation	pelvis_tx	pelvis_ty	pelvis_tz	hip_flexion_r	hip_adduction_r	hip_rotation_r	knee_angle_r	knee_angle_r_beta	ankle_angle_r	subtalar_angle_r	mtp_angle_r	hip_flexion_l	hip_adduction_l	hip_rotation_l	knee_angle_l	knee_angle_l_beta	ankle_angle_l	subtalar_angle_l	mtp_angle_l	lumbar_extension	lumbar_bending	lumbar_rotation	arm_flex_r	arm_add_r	arm_rot_r	elbow_flex_r	pro_sup_r	wrist_flex_r	wrist_dev_r	arm_flex_l	arm_add_l	arm_rot_l	elbow_flex_l	pro_sup_l	wrist_flex_l	wrist_dev_l
0.02	-0.02541410279703308	-0.01596674177072574	-175.6204396694718	0	0.9400000003403366	0	14.54203345981366	-6.5367737892847	0	24.05250782004113	0.4197954548214014	-3.732436075819102	0	0	14.54203345981366	-6.5367737892847	0	24.05250782004113	0.4197954548214014	-3.732436075819102	0	0	-0.04968423759148291	-0.01866743902411326	-0.004508116830463711	-0.2758832548776355	-0.06255597727416273	-0.01045000597841644	0.6242022248829588	-44.21849824784071	0	0	0	-2.23425404586698	0	31.90493455336649	44.21828777930384	0	0
0.03	0.0001819213075303843	0.001071323014163885	-175.6178978379518	0	0.9400000003403366	0	16.23974954246918	-7.048340930034596	0	26.00111017888736	0.4538049817953961	-3.962893980992659	0	0	16.23974954246918	-7.048340930034596	0	26.00111017888736	0.4538049817953961	-3.962893980992659	0	0	-0.004186147003494375	-0.0001962342745358803	4.934942055258319e-05	-0.2382287747948423	-0.05529871344045653	-0.02276952609426273	0.4847807892452977	-42.31417017864064	0	0	0	-2.563853206657013	0	34.7030560922377	42.31395972254144	0	0
0.04	0.001212858050578663	-0.0004993587370732708	-175.6199287574868	0	0.9400000003403366	0	17.30603612660896	-7.350712432024627	0	27.20091712943047	0.4747455634706862	-4.095325494050519	0	0	17.30603612660896	-7.350712432024627	0	27.20091712943047	0.4747455634706862	-4.095325494050519	0	0	0.0006385049932048828	-0.001300139278170724	-0.0001924463331921332	-0.211100923752397	-0.03557133541007174	-0.06057443268508279	0.4710116686916689	-41.1113514628246	0	0	0	-2.777687969683095	0	36.41689620534468	41.11114101426825	0	0
0.05	0.006753614914897655	0.0002745074453589043	-175.6063317839639	0	0.9400000003403366	0	18.18169288316637	-7.580699697648148	0	28.17079352373747	0.4916730998887142	-4.19261276157544	0	0	18.18169288316637	-7.580699697648148	0	28.17079352373747	0.4916730998887142	-4.19261276157544	0	0	0.01009902703430232	-0.00125542592360951	-0.004965430270942347	-0.2642979879755084	-0.05770453771253559	-0.01822713486959616	0.5816487614060314	-40.11620235760059	0	0	0	-2.960131229795018	0	37.78986322974869	40.11599191501492	0	0
0.06	0.002238514473167461	0.0006733237332189068	-175.6198309267973	0	0.9400000003403366	0	19.16020262739512	-7.829123070383427	0	29.24921540524579	0.5104951124465865	-4.296102401665331	0	0	19.16020262739512	-7.829123070383427	0	29.24921540524579	0.5104951124465865	-4.296102401665331	0	0	0.007006747248839322	0.0006603517548551844	-0.0004064222633888233	-0.2051849485891424	-0.03967375202607668	0.0963163226914646	0.451883578438203	-39.00050009832925	0	0	0	-3.167180794522691	0	39.31099155002729	39.0002896623264	0	0
0.07000000000000001	-0.003219025372371754	0.001808062160005995	-175.614035058675	0	0.9400000003403366	0	19.96635891529363	-8.017361731117228	0	30.12679668357384	0.5258117952072717	-4.37166426728455	0	0	19.96635891529363	-8.017361731117228	0	30.12679668357384	0.5258117952072717	-4.37166426728455	0	0	-0.004886067534924587	-0.0002159760576108794	-0.002474795886456359	-0.1528879569423	-0.006986180971007269	0.05222866120656396	0.4009078710433345	-38.07376001419775	0	0	0	-3.344341943046616	0	40.53804362185488	38.07354958343893	0	0
0.08	0.0008734070905001568	-0.001063296930857396	-175.6197457261138	0	0.9400000003403366	0	20.85026945396085	-8.217043465238655	0	31.08608152661665	0.5425544741828459	-4.450667504381145	0	0	20.85026945396085	-8.217043465238655	0	31.08608152661665	0.5425544741828459	-4.450667504381145	0	0	0.004209023747747845	-0.0003880728829761675	-0.0003599311745942768	-0.09294036942655093	0.01466487867667162	-0.02254443306410672	0.3970200478140177	-37.0543255174993	0	0	0	-3.541252338417539	0	41.87508372908337	37.0541150924307	0	0
0.09	-0.006714376321253563	0.0005622144657899978	-175.6149662384853	0	0.9400000003403366	0	20.85340736310597	-8.217772765934832	0	31.08951347855364	0.5426143730439165	-4.45096023327697	0	0	20.85340736310597	-8.217772765934832	0	31.08951347855364	0.5426143730439165	-4.45096023327697	0	0	0.006104151201280091	0.006065625637864807	-0.007598714120000254	-0.110576289240317	0.03941044511602657	-0.0702808928164661	0.3789957587450392	-37.0507149762376	0	0	0	-3.541942974361211	0	41.87987364778709	37.05050455118948	0	0
0.1	-0.01494361777529194	-0.00494977535718941	-175.6335382242282	0	0.9400000003403366	0	21.63882202061721	-8.379279634018905	0	31.93358144351432	0.5573461381430885	-4.512320885859996	0	0	21.63882202061721	-8.379279634018905	0	31.93358144351432	0.5573461381430885	-4.512320885859996	0	0	-0.01029971017447071	-0.005476598764092677	0.002137547603564419	-0.1022423398880783	0.05780170896109111	-0.09531007366212872	0.4439357128297428	-36.13636680993187	0	0	0	-3.723951268948381	0	43.04565658333473	36.13615638977998	0	0
0.11	-0.01127034953229539	-0.004596013944434769	-175.617140562857	0	0.9400000003403366	0	21.6416180892347	-8.379893983790478	0	31.93662212918944	0.5573992081196375	-4.512561734302126	0	0	21.6416180892347	-8.379893983790478	0	31.93662212918944	0.5573992081196375	-4.512561734302126	0	0	-0.002771064879456256	-0.002006303556766261	-0.003512170006102962	-0.1438321115689018	0.04223008576211564	-0.1324453820558361	0.3769185246738922	-36.13313081102987	0	-1.479519039807114e-35	0	-3.724582279751527	0	43.04987289134986	36.13292039089586	0	-1.479519039807114e-35
0.12	-0.01039984533146049	-0.009456634163708903	-175.623070228229	0	0.9400000003403366	0	21.64385034279629	-8.380382515630984	0	31.93905599931138	0.5574416871668313	-4.512753084836481	0	0	21.64385034279629	-8.380382515630984	0	31.93905599931138	0.5574416871668313	-4.512753084836481	0	0	-0.02032336402659017	-0.01198925747991117	0.003065447016039374	-0.2653908244047938	-0.03435585624405584	-0.1006184114602846	0.4673390090903465	-36.13054507271497	0	0	0	-3.725087837114376	0	43.05323632997749	36.13033465259522	0	0
0.13	-0.01063586905409894	-0.009457935754176049	-175.6251058481459	0	0.9400000003403366	0	21.64843968947244	-8.381388797382346	0	31.9440528703892	0.5575288990194369	-4.513147383798557	0	0	21.64843968947244	-8.381388797382346	0	31.9440528703892	0.5575288990194369	-4.513147383798557	0	0	-0.01982600581623298	-0.01100446738607132	0.00559750834110227	-0.4904540694107135	-0.1886597134221884	-0.011456614088609	0.6171112904226451	-36.12523127709975	0	0	0	-3.726125468468372	0	43.06015377881511	36.12502085700937	0	0
0.14	-0.01452356223793003	-0.01619539927807718	-175.6247627605788	0	0.9400000003403366	0	21.65233458921426	-8.38224001806646	0	31.94830149855049	0.5576030515695445	-4.513480636984408	0	0	21.65233458921426	-8.38224001806646	0	31.94830149855049	0.5576030515695445	-4.513480636984408	0	0	-0.02470363487967536	-0.01120303514669026	0.00234199364020764	-0.6505233898765008	-0.3021222513647008	0.01861348486833074	0.7647281159728209	-36.12071857616211	0	0	0	-3.727008392323159	0	43.06602081660817	36.12050815609661	0	0
0.15	-0.01276706572527252	-0.01796463752013307	-175.6225636038836	0	0.9400000003403366	0	21.65640436732078	-8.383129424133301	0	31.95273985311143	0.5576805154700037	-4.513828806601289	0	0	21.65640436732078	-8.383129424133301	0	31.95273985311143	0.5576805154700037	-4.513828806601289	0	0	-0.02679407250393815	-0.01158260378509766	0.0006095738112075269	-0.8143531320584787	-0.4319110833618779	0.0340267999320359	0.9475433959645095	-36.11600342419632	0	0	0	-3.727930830111028	0	43.07215125154026	36.11579300415681	0	0
0.16	-0.002023977830208383	0.002844888168020122	-175.6197613351024	0	0.9400000003403366	0	21.66342249979293	-8.384666518265448	0	31.96038004478626	0.557813861970213	-4.514430762559543	0	0	21.66342249979293	-8.384666518265448	0	31.96038004478626	0.557813861970213	-4.514430762559543	0	0	-0.006006514121316218	0.001805618155929777	-0.0009917826115885397	-1.067968620634718	-0.5494207560172056	0.03133717654314159	1.162099691859471	-36.10787665284069	0	0	0	-3.729518238498017	0	43.08272729461616	36.10766623284606	0	0
0.17	-0.004641988046376167	-0.001225524225632914	-175.620289265827	0	0.9400000003403366	0	21.67070663111009	-8.386261742866436	0	31.96830647840716	0.5579522043348385	-4.515055373089355	0	0	21.67070663111009	-8.386261742866436	0	31.96830647840716	0.5579522043348385	-4.515055373089355	0	0	-0.008140859600574714	-0.0011104619959644	-0.0008907446282302008	-1.287893999634966	-0.692119090863708	0.02500548145940935	1.358728735792936	-36.09944238522405	0	0	0	-3.731165413774202	0	43.0937040529363	36.09923196527598	0	0
0.18	-0.01142470413367521	-0.01098839960951472	-175.61424612135	0	0.9400000003403366	0	21.67530722043855	-8.387266242978331	0	31.97332080551652	0.5580397208526687	-4.515448362028123	0	0	21.67530722043855	-8.387266242978331	0	31.97332080551652	0.5580397208526687	-4.515448362028123	0	0	-0.02029079634305671	-0.005941140939544714	-0.001919609453476723	-1.451801926152724	-0.7841311407171599	-0.01874235398931295	1.512719331001736	-36.0941122330318	0	0	0	-3.732208193462309	0	43.10063288487923	36.09390181311311	0	0
0.19	0.0006578528325769707	-0.007932513773588981	-175.6222914579271	0	0.9400000003403366	0	22.55368783649777	-8.558371584745437	0	32.91439272961506	0.5744645244262665	-4.578992676928006	0	0	22.55368783649777	-8.558371584745437	0	32.91439272961506	0.5744645244262665	-4.578992676928006	0	0	-0.004401253556720974	-0.002947710725175974	-0.001152480940537013	-1.543870120724354	-0.8512373741460983	-0.03074761097111234	1.609278291037056	-35.0659287496858	0	0	0	-3.940019888834373	0	44.39407078890935	35.06571833516706	0	0
0.2	0.01220913906397996	0.0008857391018373839	-175.6293529107814	0	0.9400000003403366	0	23.36459160436963	-8.70593862826103	0	33.77998566668849	0.589571971160206	-4.632256830569587	0	0	23.36459160436963	-8.70593862826103	0	33.77998566668849	0.589571971160206	-4.632256830569587	0	0	0.01862019099034384	0.002824381987400556	0.005322791499787263	-1.692274630167509	-0.9087312977001947	0.003163626680249871	1.773777512629686	-34.11015743536645	0	0	0	-4.136850945604461	0	45.57657555291034	34.10994702574748	0	0
0.21	-0.0001744365503819654	0.007254038417520641	-175.6173097334577	0	0.9400000003403366	0	24.15002315535365	-8.844296469150612	0	34.61766637085212	0.6041922575282859	-4.68152079935215	0	0	24.15002315535365	-8.844296469150612	0	34.61766637085212	0.6041922575282859	-4.68152079935215	0	0	0.0100581177176693	0.003314386709280398	0.0007816571572536248	-1.713125882687654	-0.9321957038129104	0.02159746245148481	1.811680221726049	-33.18135767798008	0	0	0	-4.329664961265603	0	46.7178139004523	33.18114727307697	0	0
0.22	-0.005782505045525632	-0.005846874947705611	-175.6137690010169	0	0.9400000003403366	0	24.90232193969295	-8.96417741468	0	35.41724170024529	0.6181474796439149	-4.722428620715021	0	0	24.90232193969295	-8.96417741468	0	35.41724170024529	0.6181474796439149	-4.722428620715021	0	0	-0.007232130580646531	-0.005179908847731155	-0.001866216359874435	-1.768033432194842	-0.9958054804324515	0.02448578106854689	1.886694710620614	-32.28275267723888	0	0	0	-4.520882594563053	0	47.79794548363424	32.2825422767575	0	0
0.23	-0.001514349192933808	0.00730048061614592	-175.6180527275141	0	0.9400000003403366	0	25.61018150730371	-9.072872132824148	0	36.16923616038516	0.6312722589301129	-4.758951921707808	0	0	25.61018150730371	-9.072872132824148	0	36.16923616038516	0.6312722589301129	-4.758951921707808	0	0	0.009189331132782929	0.002467475220343366	0.001484278083376539	-1.801872998549616	-1.023089610234465	0.05315354567910635	1.944421019998835	-31.43402405723692	0	0	0	-4.703019707706727	0	48.8106772059442	31.43381366089015	0	0
0.24	0.00587898296257497	0.001790674588902632	-175.6198443766763	0	0.9400000003403366	0	26.27281742536516	-9.167706426885951	0	36.87251781012231	0.6435468392868836	-4.789874595820852	0	0	26.27281742536516	-9.167706426885951	0	36.87251781012231	0.6435468392868836	-4.789874595820852	0	0	0.007708420125722678	0.002691655692643691	0.0004555825054724803	-1.838188154510842	-1.041072825972222	0.01646371917447502	2.021554183265297	-30.63390997589363	0	0	0	-4.877402058524475	0	49.75243491584481	30.63369958337221	0	0
